0
SECTION
2
HEADER
9
$INSUNITS
70
4
0
ENDSEC
0
SECTION
2
TABLES
0
TABLE
2
LTYPE
0
LTYPE
72
65
70
64
2
CONTINUOUS
3
______
73
0
40
0
0
ENDTAB
0
TABLE
2
LAYER
0
ENDTAB
0
ENDSEC
0
SECTION
2
ENTITIES
0
LINE
8
0
10
-17.7894193
20
-10.270726
11
19.0123547
21
-20.1317316
0
LINE
8
0
10
-17.7894193
20
-10.270726
11
4.5207824
21
72.9920803
0
LINE
8
0
10
4.5207824
20
72.9920803
11
41.3225564
21
63.1310747
0
LINE
8
0
10
61.0175386
20
63.030201
11
42.6166516
21
67.9607038
0
LINE
8
0
10
42.6166516
20
67.9607038
11
41.3225564
21
63.1310747
0
LINE
8
0
10
89.0776839
20
55.5115077
11
89.7247315
21
57.9263222
0
LINE
8
0
10
89.7247315
20
57.9263222
11
61.6645862
21
65.4450155
0
LINE
8
0
10
61.6645862
20
65.4450155
11
61.0175386
21
63.030201
0
LINE
8
0
10
106.8315233
20
48.1661903
11
107.4785709
21
50.5810049
0
LINE
8
0
10
107.4785709
20
50.5810049
11
89.0776839
21
55.5115077
0
LINE
8
0
10
99.4230189
20
-39.0895137
11
102.9222086
21
-40.0271188
0
LINE
8
0
10
102.9222086
20
-40.0271188
11
125.2324103
21
43.2356875
0
LINE
8
0
10
125.2324103
20
43.2356875
11
106.8315233
21
48.1661903
0
LINE
8
0
10
13.8359738
20
-39.4502481
11
41.8961191
21
-46.9689414
0
LINE
8
0
10
41.8961191
20
-46.9689414
11
42.5431667
21
-44.5541269
0
LINE
8
0
10
19.0123547
20
-20.1317316
11
13.8359738
21
-39.4502481
0
LINE
8
0
10
42.5431667
20
-44.5541269
11
51.2847954
21
-46.8964392
0
LINE
8
0
10
50.6377478
20
-49.3112538
11
69.7843608
21
-54.4415733
0
LINE
8
0
10
51.2847954
20
-46.8964392
11
50.6377478
21
-49.3112538
0
LINE
8
0
10
69.3166621
20
-55.2516512
11
94.4747001
21
-69.7766512
0
LINE
8
0
10
94.4747001
20
-69.7766512
11
95.1195927
21
-68.6596644
0
LINE
8
0
10
106.9736687
20
-43.4488834
11
99.4230189
21
-39.0895137
0
LINE
8
0
10
69.7843608
20
-54.4415733
11
69.3166621
21
-55.2516512
0
LINE
8
0
10
108.9826922
20
-82.5227639
11
129.5241442
21
-61.9813119
0
LINE
8
0
10
129.5241442
20
-61.9813119
11
108.9826922
21
-41.4398599
0
LINE
8
0
10
108.9826922
20
-41.4398599
11
106.9736687
21
-43.4488834
0
LINE
8
0
10
95.1195927
20
-68.6596644
11
108.9826922
21
-82.5227639
0
LINE
8
0
10
267.8736273
20
-20.1317316
11
304.6754013
21
-10.270726
0
LINE
8
0
10
282.3651996
20
72.9920803
11
304.6754013
21
-10.270726
0
LINE
8
0
10
245.5634256
20
63.1310747
11
282.3651996
21
72.9920803
0
LINE
8
0
10
245.5634256
20
63.1310747
11
244.2693304
21
67.9607038
0
LINE
8
0
10
244.2693304
20
67.9607038
11
225.8684434
21
63.030201
0
LINE
8
0
10
225.8684434
20
63.030201
11
225.2213958
21
65.4450155
0
LINE
8
0
10
225.2213958
20
65.4450155
11
197.1612505
21
57.9263222
0
LINE
8
0
10
197.1612505
20
57.9263222
11
197.8082981
21
55.5115077
0
LINE
8
0
10
197.8082981
20
55.5115077
11
179.4074111
21
50.5810049
0
LINE
8
0
10
179.4074111
20
50.5810049
11
180.0544587
21
48.1661903
0
LINE
8
0
10
183.9637734
20
-40.0271188
11
187.4629631
21
-39.0895137
0
LINE
8
0
10
161.6535717
20
43.2356875
11
183.9637734
21
-40.0271188
0
LINE
8
0
10
180.0544587
20
48.1661903
11
161.6535717
21
43.2356875
0
LINE
8
0
10
244.9898629
20
-46.9689414
11
273.0500082
21
-39.4502481
0
LINE
8
0
10
273.0500082
20
-39.4502481
11
267.8736273
21
-20.1317316
0
LINE
8
0
10
244.3428153
20
-44.5541269
11
244.9898629
21
-46.9689414
0
LINE
8
0
10
235.6011866
20
-46.8964392
11
244.3428153
21
-44.5541269
0
LINE
8
0
10
217.1016212
20
-54.4415733
11
236.2482342
21
-49.3112538
0
LINE
8
0
10
236.2482342
20
-49.3112538
11
235.6011866
21
-46.8964392
0
LINE
8
0
10
192.4112819
20
-69.7766512
11
217.5693199
21
-55.2516512
0
LINE
8
0
10
217.5693199
20
-55.2516512
11
217.1016212
21
-54.4415733
0
LINE
8
0
10
187.4629631
20
-39.0895137
11
179.9123133
21
-43.4488834
0
LINE
8
0
10
191.7663893
20
-68.6596644
11
192.4112819
21
-69.7766512
0
LINE
8
0
10
157.3618378
20
-61.9813119
11
177.9032898
21
-82.5227639
0
LINE
8
0
10
177.9032898
20
-82.5227639
11
191.7663893
21
-68.6596644
0
LINE
8
0
10
179.9123133
20
-43.4488834
11
177.9032898
21
-41.4398599
0
LINE
8
0
10
177.9032898
20
-41.4398599
11
157.3618378
21
-61.9813119
0
LINE
8
0
10
-8.5732141
20
-4.9497475
11
4.9497475
21
-8.5732141
0
LINE
8
0
10
4.9497475
20
-8.5732141
11
8.5732141
21
4.9497475
0
LINE
8
0
10
8.5732141
20
4.9497475
11
-4.9497475
21
8.5732141
0
LINE
8
0
10
-4.9497475
20
8.5732141
11
-8.5732141
21
-4.9497475
0
LINE
8
0
10
-3.6427113
20
13.4511395
11
9.8802503
21
9.8276729
0
LINE
8
0
10
9.8802503
20
9.8276729
11
13.5037169
21
23.3506345
0
LINE
8
0
10
13.5037169
20
23.3506345
11
-0.0192447
21
26.9741011
0
LINE
8
0
10
-0.0192447
20
26.9741011
11
-3.6427113
21
13.4511395
0
LINE
8
0
10
1.2877915
20
31.8520265
11
14.8107531
21
28.2285599
0
LINE
8
0
10
14.8107531
20
28.2285599
11
18.4342197
21
41.7515215
0
LINE
8
0
10
18.4342197
20
41.7515215
11
4.9112581
21
45.3749881
0
LINE
8
0
10
4.9112581
20
45.3749881
11
1.2877915
21
31.8520265
0
LINE
8
0
10
6.2182943
20
50.2529135
11
19.7412559
21
46.6294469
0
LINE
8
0
10
19.7412559
20
46.6294469
11
23.3647225
21
60.1524085
0
LINE
8
0
10
23.3647225
20
60.1524085
11
9.8417609
21
63.7758751
0
LINE
8
0
10
9.8417609
20
63.7758751
11
6.2182943
21
50.2529135
0
LINE
8
0
10
9.8276729
20
-9.8802503
11
23.3506345
21
-13.5037169
0
LINE
8
0
10
23.3506345
20
-13.5037169
11
26.9741011
21
0.0192447
0
LINE
8
0
10
26.9741011
20
0.0192447
11
13.4511395
21
3.6427113
0
LINE
8
0
10
13.4511395
20
3.6427113
11
9.8276729
21
-9.8802503
0
LINE
8
0
10
14.7581757
20
8.5206367
11
28.2811373
21
4.8971701
0
LINE
8
0
10
28.2811373
20
4.8971701
11
31.9046039
21
18.4201317
0
LINE
8
0
10
31.9046039
20
18.4201317
11
18.3816423
21
22.0435983
0
LINE
8
0
10
18.3816423
20
22.0435983
11
14.7581757
21
8.5206367
0
LINE
8
0
10
19.6886785
20
26.9215237
11
33.2116401
21
23.2980571
0
LINE
8
0
10
33.2116401
20
23.2980571
11
36.8351067
21
36.8210187
0
LINE
8
0
10
36.8351067
20
36.8210187
11
23.3121451
21
40.4444853
0
LINE
8
0
10
23.3121451
20
40.4444853
11
19.6886785
21
26.9215237
0
LINE
8
0
10
24.6191813
20
45.3224107
11
38.1421429
21
41.6989441
0
LINE
8
0
10
38.1421429
20
41.6989441
11
41.7656095
21
55.2219057
0
LINE
8
0
10
41.7656095
20
55.2219057
11
28.2426479
21
58.8453723
0
LINE
8
0
10
28.2426479
20
58.8453723
11
24.6191813
21
45.3224107
0
LINE
8
0
10
29.5226551
20
-9.981124
11
43.0456167
21
-13.6045906
0
LINE
8
0
10
43.0456167
20
-13.6045906
11
46.6690833
21
-0.081629
0
LINE
8
0
10
46.6690833
20
-0.081629
11
33.1461217
21
3.5418376
0
LINE
8
0
10
33.1461217
20
3.5418376
11
29.5226551
21
-9.981124
0
LINE
8
0
10
34.4531579
20
8.419763
11
47.9761195
21
4.7962964
0
LINE
8
0
10
47.9761195
20
4.7962964
11
51.5995861
21
18.319258
0
LINE
8
0
10
51.5995861
20
18.319258
11
38.0766245
21
21.9427246
0
LINE
8
0
10
38.0766245
20
21.9427246
11
34.4531579
21
8.419763
0
LINE
8
0
10
39.3836607
20
26.82065
11
52.9066223
21
23.1971834
0
LINE
8
0
10
52.9066223
20
23.1971834
11
56.5300889
21
36.720145
0
LINE
8
0
10
56.5300889
20
36.720145
11
43.0071273
21
40.3436116
0
LINE
8
0
10
43.0071273
20
40.3436116
11
39.3836607
21
26.82065
0
LINE
8
0
10
44.3141635
20
45.221537
11
57.8371251
21
41.5980704
0
LINE
8
0
10
57.8371251
20
41.5980704
11
61.4605917
21
55.121032
0
LINE
8
0
10
61.4605917
20
55.121032
11
47.9376301
21
58.7444986
0
LINE
8
0
10
47.9376301
20
58.7444986
11
44.3141635
21
45.221537
0
LINE
8
0
10
48.5705897
20
-12.4968122
11
62.0935513
21
-16.1202788
0
LINE
8
0
10
62.0935513
20
-16.1202788
11
65.7170179
21
-2.5973172
0
LINE
8
0
10
65.7170179
20
-2.5973172
11
52.1940563
21
1.0261494
0
LINE
8
0
10
52.1940563
20
1.0261494
11
48.5705897
21
-12.4968122
0
LINE
8
0
10
53.5010925
20
5.9040748
11
67.0240541
21
2.2806082
0
LINE
8
0
10
67.0240541
20
2.2806082
11
70.6475207
21
15.8035698
0
LINE
8
0
10
70.6475207
20
15.8035698
11
57.1245591
21
19.4270364
0
LINE
8
0
10
57.1245591
20
19.4270364
11
53.5010925
21
5.9040748
0
LINE
8
0
10
58.4315953
20
24.3049618
11
71.9545569
21
20.6814952
0
LINE
8
0
10
71.9545569
20
20.6814952
11
75.5780235
21
34.2044568
0
LINE
8
0
10
75.5780235
20
34.2044568
11
62.0550619
21
37.8279234
0
LINE
8
0
10
62.0550619
20
37.8279234
11
58.4315953
21
24.3049618
0
LINE
8
0
10
63.3620981
20
42.7058487
11
76.8850597
21
39.0823821
0
LINE
8
0
10
76.8850597
20
39.0823821
11
80.5085263
21
52.6053437
0
LINE
8
0
10
80.5085263
20
52.6053437
11
66.9855647
21
56.2288103
0
LINE
8
0
10
66.9855647
20
56.2288103
11
63.3620981
21
42.7058487
0
LINE
8
0
10
66.3244291
20
-19.8421296
11
79.8473907
21
-23.4655962
0
LINE
8
0
10
79.8473907
20
-23.4655962
11
83.4708573
21
-9.9426346
0
LINE
8
0
10
83.4708573
20
-9.9426346
11
69.9478957
21
-6.319168
0
LINE
8
0
10
69.9478957
20
-6.319168
11
66.3244291
21
-19.8421296
0
LINE
8
0
10
71.2549319
20
-1.4412426
11
84.7778935
21
-5.0647092
0
LINE
8
0
10
84.7778935
20
-5.0647092
11
88.4013601
21
8.4582524
0
LINE
8
0
10
88.4013601
20
8.4582524
11
74.8783985
21
12.081719
0
LINE
8
0
10
74.8783985
20
12.081719
11
71.2549319
21
-1.4412426
0
LINE
8
0
10
76.1854347
20
16.9596444
11
89.7083963
21
13.3361778
0
LINE
8
0
10
89.7083963
20
13.3361778
11
93.3318629
21
26.8591394
0
LINE
8
0
10
93.3318629
20
26.8591394
11
79.8089013
21
30.482606
0
LINE
8
0
10
79.8089013
20
30.482606
11
76.1854347
21
16.9596444
0
LINE
8
0
10
81.1159375
20
35.3605314
11
94.6388991
21
31.7370648
0
LINE
8
0
10
94.6388991
20
31.7370648
11
98.2623657
21
45.2600264
0
LINE
8
0
10
98.2623657
20
45.2600264
11
84.7394041
21
48.883493
0
LINE
8
0
10
84.7394041
20
48.883493
11
81.1159375
21
35.3605314
0
LINE
8
0
10
84.0782685
20
-27.187447
11
97.6012301
21
-30.8109136
0
LINE
8
0
10
97.6012301
20
-30.8109136
11
101.2246967
21
-17.287952
0
LINE
8
0
10
101.2246967
20
-17.287952
11
87.7017351
21
-13.6644854
0
LINE
8
0
10
87.7017351
20
-13.6644854
11
84.0782685
21
-27.187447
0
LINE
8
0
10
89.0087713
20
-8.78656
11
102.5317329
21
-12.4100266
0
LINE
8
0
10
102.5317329
20
-12.4100266
11
106.1551995
21
1.112935
0
LINE
8
0
10
106.1551995
20
1.112935
11
92.6322379
21
4.7364016
0
LINE
8
0
10
92.6322379
20
4.7364016
11
89.0087713
21
-8.78656
0
LINE
8
0
10
93.9392741
20
9.614327
11
107.4622357
21
5.9908604
0
LINE
8
0
10
107.4622357
20
5.9908604
11
111.0857023
21
19.513822
0
LINE
8
0
10
111.0857023
20
19.513822
11
97.5627407
21
23.1372886
0
LINE
8
0
10
97.5627407
20
23.1372886
11
93.9392741
21
9.614327
0
LINE
8
0
10
98.8697769
20
28.015214
11
112.3927385
21
24.3917474
0
LINE
8
0
10
112.3927385
20
24.3917474
11
116.0162051
21
37.914709
0
LINE
8
0
10
116.0162051
20
37.914709
11
102.4932435
21
41.5381756
0
LINE
8
0
10
102.4932435
20
41.5381756
11
98.8697769
21
28.015214
0
LINE
8
0
10
23.052179
20
-34.1292696
11
36.5751406
21
-37.7527362
0
LINE
8
0
10
36.5751406
20
-37.7527362
11
40.1986072
21
-24.2297746
0
LINE
8
0
10
40.1986072
20
-24.2297746
11
26.6756456
21
-20.606308
0
LINE
8
0
10
26.6756456
20
-20.606308
11
23.052179
21
-34.1292696
0
LINE
8
0
10
42.1001136
20
-36.6449579
11
55.6230752
21
-40.2684245
0
LINE
8
0
10
55.6230752
20
-40.2684245
11
59.2465418
21
-26.7454629
0
LINE
8
0
10
59.2465418
20
-26.7454629
11
45.7235802
21
-23.1219963
0
LINE
8
0
10
45.7235802
20
-23.1219963
11
42.1001136
21
-36.6449579
0
LINE
8
0
10
59.853953
20
-43.9902753
11
73.3769146
21
-47.6137419
0
LINE
8
0
10
73.3769146
20
-47.6137419
11
77.0003812
21
-34.0907803
0
LINE
8
0
10
77.0003812
20
-34.0907803
11
63.4774196
21
-30.4673137
0
LINE
8
0
10
63.4774196
20
-30.4673137
11
59.853953
21
-43.9902753
0
LINE
8
0
10
79.5960033
20
-52.49731
11
91.7203589
21
-59.49731
0
LINE
8
0
10
91.7203589
20
-59.49731
11
98.7203589
21
-47.3729544
0
LINE
8
0
10
98.7203589
20
-47.3729544
11
86.5960033
21
-40.3729544
0
LINE
8
0
10
86.5960033
20
-40.3729544
11
79.5960033
21
-52.49731
0
LINE
8
0
10
108.9826922
20
-71.8808068
11
118.8821871
21
-61.9813119
0
LINE
8
0
10
118.8821871
20
-61.9813119
11
108.9826922
21
-52.081817
0
LINE
8
0
10
108.9826922
20
-52.081817
11
99.0831973
21
-61.9813119
0
LINE
8
0
10
99.0831973
20
-61.9813119
11
108.9826922
21
-71.8808068
0
LINE
8
0
10
281.9362345
20
-8.5732141
11
295.4591961
21
-4.9497475
0
LINE
8
0
10
295.4591961
20
-4.9497475
11
291.8357295
21
8.5732141
0
LINE
8
0
10
291.8357295
20
8.5732141
11
278.3127679
21
4.9497475
0
LINE
8
0
10
278.3127679
20
4.9497475
11
281.9362345
21
-8.5732141
0
LINE
8
0
10
277.0057317
20
9.8276729
11
290.5286933
21
13.4511395
0
LINE
8
0
10
290.5286933
20
13.4511395
11
286.9052267
21
26.9741011
0
LINE
8
0
10
286.9052267
20
26.9741011
11
273.3822651
21
23.3506345
0
LINE
8
0
10
273.3822651
20
23.3506345
11
277.0057317
21
9.8276729
0
LINE
8
0
10
272.0752289
20
28.2285599
11
285.5981905
21
31.8520265
0
LINE
8
0
10
285.5981905
20
31.8520265
11
281.9747239
21
45.3749881
0
LINE
8
0
10
281.9747239
20
45.3749881
11
268.4517623
21
41.7515215
0
LINE
8
0
10
268.4517623
20
41.7515215
11
272.0752289
21
28.2285599
0
LINE
8
0
10
267.1447261
20
46.6294469
11
280.6676877
21
50.2529135
0
LINE
8
0
10
280.6676877
20
50.2529135
11
277.0442211
21
63.7758751
0
LINE
8
0
10
277.0442211
20
63.7758751
11
263.5212595
21
60.1524085
0
LINE
8
0
10
263.5212595
20
60.1524085
11
267.1447261
21
46.6294469
0
LINE
8
0
10
263.5353475
20
-13.5037169
11
277.0583091
21
-9.8802503
0
LINE
8
0
10
277.0583091
20
-9.8802503
11
273.4348425
21
3.6427113
0
LINE
8
0
10
273.4348425
20
3.6427113
11
259.9118809
21
0.0192447
0
LINE
8
0
10
259.9118809
20
0.0192447
11
263.5353475
21
-13.5037169
0
LINE
8
0
10
258.6048447
20
4.8971701
11
272.1278063
21
8.5206367
0
LINE
8
0
10
272.1278063
20
8.5206367
11
268.5043397
21
22.0435983
0
LINE
8
0
10
268.5043397
20
22.0435983
11
254.9813781
21
18.4201317
0
LINE
8
0
10
254.9813781
20
18.4201317
11
258.6048447
21
4.8971701
0
LINE
8
0
10
253.6743419
20
23.2980571
11
267.1973035
21
26.9215237
0
LINE
8
0
10
267.1973035
20
26.9215237
11
263.5738369
21
40.4444853
0
LINE
8
0
10
263.5738369
20
40.4444853
11
250.0508753
21
36.8210187
0
LINE
8
0
10
250.0508753
20
36.8210187
11
253.6743419
21
23.2980571
0
LINE
8
0
10
248.7438391
20
41.6989441
11
262.2668007
21
45.3224107
0
LINE
8
0
10
262.2668007
20
45.3224107
11
258.6433341
21
58.8453723
0
LINE
8
0
10
258.6433341
20
58.8453723
11
245.1203725
21
55.2219057
0
LINE
8
0
10
245.1203725
20
55.2219057
11
248.7438391
21
41.6989441
0
LINE
8
0
10
243.8403653
20
-13.6045906
11
257.3633269
21
-9.981124
0
LINE
8
0
10
257.3633269
20
-9.981124
11
253.7398603
21
3.5418376
0
LINE
8
0
10
253.7398603
20
3.5418376
11
240.2168987
21
-0.081629
0
LINE
8
0
10
240.2168987
20
-0.081629
11
243.8403653
21
-13.6045906
0
LINE
8
0
10
238.9098625
20
4.7962964
11
252.4328241
21
8.419763
0
LINE
8
0
10
252.4328241
20
8.419763
11
248.8093575
21
21.9427246
0
LINE
8
0
10
248.8093575
20
21.9427246
11
235.2863959
21
18.319258
0
LINE
8
0
10
235.2863959
20
18.319258
11
238.9098625
21
4.7962964
0
LINE
8
0
10
233.9793597
20
23.1971834
11
247.5023213
21
26.82065
0
LINE
8
0
10
247.5023213
20
26.82065
11
243.8788547
21
40.3436116
0
LINE
8
0
10
243.8788547
20
40.3436116
11
230.3558931
21
36.720145
0
LINE
8
0
10
230.3558931
20
36.720145
11
233.9793597
21
23.1971834
0
LINE
8
0
10
229.0488569
20
41.5980704
11
242.5718185
21
45.221537
0
LINE
8
0
10
242.5718185
20
45.221537
11
238.9483519
21
58.7444986
0
LINE
8
0
10
238.9483519
20
58.7444986
11
225.4253903
21
55.121032
0
LINE
8
0
10
225.4253903
20
55.121032
11
229.0488569
21
41.5980704
0
LINE
8
0
10
224.7924307
20
-16.1202788
11
238.3153923
21
-12.4968122
0
LINE
8
0
10
238.3153923
20
-12.4968122
11
234.6919257
21
1.0261494
0
LINE
8
0
10
234.6919257
20
1.0261494
11
221.1689641
21
-2.5973172
0
LINE
8
0
10
221.1689641
20
-2.5973172
11
224.7924307
21
-16.1202788
0
LINE
8
0
10
219.8619279
20
2.2806082
11
233.3848895
21
5.9040748
0
LINE
8
0
10
233.3848895
20
5.9040748
11
229.7614229
21
19.4270364
0
LINE
8
0
10
229.7614229
20
19.4270364
11
216.2384613
21
15.8035698
0
LINE
8
0
10
216.2384613
20
15.8035698
11
219.8619279
21
2.2806082
0
LINE
8
0
10
214.9314251
20
20.6814952
11
228.4543867
21
24.3049618
0
LINE
8
0
10
228.4543867
20
24.3049618
11
224.8309201
21
37.8279234
0
LINE
8
0
10
224.8309201
20
37.8279234
11
211.3079585
21
34.2044568
0
LINE
8
0
10
211.3079585
20
34.2044568
11
214.9314251
21
20.6814952
0
LINE
8
0
10
210.0009223
20
39.0823821
11
223.5238839
21
42.7058487
0
LINE
8
0
10
223.5238839
20
42.7058487
11
219.9004173
21
56.2288103
0
LINE
8
0
10
219.9004173
20
56.2288103
11
206.3774557
21
52.6053437
0
LINE
8
0
10
206.3774557
20
52.6053437
11
210.0009223
21
39.0823821
0
LINE
8
0
10
207.0385913
20
-23.4655962
11
220.5615529
21
-19.8421296
0
LINE
8
0
10
220.5615529
20
-19.8421296
11
216.9380863
21
-6.319168
0
LINE
8
0
10
216.9380863
20
-6.319168
11
203.4151247
21
-9.9426346
0
LINE
8
0
10
203.4151247
20
-9.9426346
11
207.0385913
21
-23.4655962
0
LINE
8
0
10
202.1080885
20
-5.0647092
11
215.6310501
21
-1.4412426
0
LINE
8
0
10
215.6310501
20
-1.4412426
11
212.0075835
21
12.081719
0
LINE
8
0
10
212.0075835
20
12.081719
11
198.4846219
21
8.4582524
0
LINE
8
0
10
198.4846219
20
8.4582524
11
202.1080885
21
-5.0647092
0
LINE
8
0
10
197.1775857
20
13.3361778
11
210.7005473
21
16.9596444
0
LINE
8
0
10
210.7005473
20
16.9596444
11
207.0770807
21
30.482606
0
LINE
8
0
10
207.0770807
20
30.482606
11
193.5541191
21
26.8591394
0
LINE
8
0
10
193.5541191
20
26.8591394
11
197.1775857
21
13.3361778
0
LINE
8
0
10
192.2470829
20
31.7370648
11
205.7700445
21
35.3605314
0
LINE
8
0
10
205.7700445
20
35.3605314
11
202.1465779
21
48.883493
0
LINE
8
0
10
202.1465779
20
48.883493
11
188.6236163
21
45.2600264
0
LINE
8
0
10
188.6236163
20
45.2600264
11
192.2470829
21
31.7370648
0
LINE
8
0
10
189.2847519
20
-30.8109136
11
202.8077135
21
-27.187447
0
LINE
8
0
10
202.8077135
20
-27.187447
11
199.1842469
21
-13.6644854
0
LINE
8
0
10
199.1842469
20
-13.6644854
11
185.6612853
21
-17.287952
0
LINE
8
0
10
185.6612853
20
-17.287952
11
189.2847519
21
-30.8109136
0
LINE
8
0
10
184.3542491
20
-12.4100266
11
197.8772107
21
-8.78656
0
LINE
8
0
10
197.8772107
20
-8.78656
11
194.2537441
21
4.7364016
0
LINE
8
0
10
194.2537441
20
4.7364016
11
180.7307825
21
1.112935
0
LINE
8
0
10
180.7307825
20
1.112935
11
184.3542491
21
-12.4100266
0
LINE
8
0
10
179.4237463
20
5.9908604
11
192.9467079
21
9.614327
0
LINE
8
0
10
192.9467079
20
9.614327
11
189.3232413
21
23.1372886
0
LINE
8
0
10
189.3232413
20
23.1372886
11
175.8002797
21
19.513822
0
LINE
8
0
10
175.8002797
20
19.513822
11
179.4237463
21
5.9908604
0
LINE
8
0
10
174.4932435
20
24.3917474
11
188.0162051
21
28.015214
0
LINE
8
0
10
188.0162051
20
28.015214
11
184.3927385
21
41.5381756
0
LINE
8
0
10
184.3927385
20
41.5381756
11
170.8697769
21
37.914709
0
LINE
8
0
10
170.8697769
20
37.914709
11
174.4932435
21
24.3917474
0
LINE
8
0
10
250.3108414
20
-37.7527362
11
263.833803
21
-34.1292696
0
LINE
8
0
10
263.833803
20
-34.1292696
11
260.2103364
21
-20.606308
0
LINE
8
0
10
260.2103364
20
-20.606308
11
246.6873748
21
-24.2297746
0
LINE
8
0
10
246.6873748
20
-24.2297746
11
250.3108414
21
-37.7527362
0
LINE
8
0
10
231.2629068
20
-40.2684245
11
244.7858684
21
-36.6449579
0
LINE
8
0
10
244.7858684
20
-36.6449579
11
241.1624018
21
-23.1219963
0
LINE
8
0
10
241.1624018
20
-23.1219963
11
227.6394402
21
-26.7454629
0
LINE
8
0
10
227.6394402
20
-26.7454629
11
231.2629068
21
-40.2684245
0
LINE
8
0
10
213.5090674
20
-47.6137419
11
227.032029
21
-43.9902753
0
LINE
8
0
10
227.032029
20
-43.9902753
11
223.4085624
21
-30.4673137
0
LINE
8
0
10
223.4085624
20
-30.4673137
11
209.8856008
21
-34.0907803
0
LINE
8
0
10
209.8856008
20
-34.0907803
11
213.5090674
21
-47.6137419
0
LINE
8
0
10
195.1656231
20
-59.49731
11
207.2899787
21
-52.49731
0
LINE
8
0
10
207.2899787
20
-52.49731
11
200.2899787
21
-40.3729544
0
LINE
8
0
10
200.2899787
20
-40.3729544
11
188.1656231
21
-47.3729544
0
LINE
8
0
10
188.1656231
20
-47.3729544
11
195.1656231
21
-59.49731
0
LINE
8
0
10
168.0037949
20
-61.9813119
11
177.9032898
21
-71.8808068
0
LINE
8
0
10
177.9032898
20
-71.8808068
11
187.8027847
21
-61.9813119
0
LINE
8
0
10
187.8027847
20
-61.9813119
11
177.9032898
21
-52.081817
0
LINE
8
0
10
177.9032898
20
-52.081817
11
168.0037949
21
-61.9813119
0
ENDSEC
0
EOF