0
SECTION
2
HEADER
9
$INSUNITS
70
4
0
ENDSEC
0
SECTION
2
TABLES
0
TABLE
2
LTYPE
0
LTYPE
72
65
70
64
2
CONTINUOUS
3
______
73
0
40
0
0
ENDTAB
0
TABLE
2
LAYER
0
ENDTAB
0
ENDSEC
0
SECTION
2
ENTITIES
0
LINE
8
0
10
-6.363961
20
11.0227038
11
11.0227038
21
6.363961
0
LINE
8
0
10
11.0227038
20
6.363961
11
6.363961
21
-11.0227038
0
LINE
8
0
10
6.363961
20
-11.0227038
11
-11.0227038
21
-6.363961
0
LINE
8
0
10
-11.0227038
20
-6.363961
11
-6.363961
21
11.0227038
0
LINE
8
0
10
-1.4334582
20
29.4235908
11
15.9532066
21
24.764848
0
LINE
8
0
10
15.9532066
20
24.764848
11
11.2944638
21
7.3781832
0
LINE
8
0
10
11.2944638
20
7.3781832
11
-6.092201
21
12.036926
0
LINE
8
0
10
-6.092201
20
12.036926
11
-1.4334582
21
29.4235908
0
LINE
8
0
10
3.4970446
20
47.8244778
11
20.8837094
21
43.165735
0
LINE
8
0
10
20.8837094
20
43.165735
11
16.2249666
21
25.7790702
0
LINE
8
0
10
16.2249666
20
25.7790702
11
-1.1616982
21
30.437813
0
LINE
8
0
10
-1.1616982
20
30.437813
11
3.4970446
21
47.8244778
0
LINE
8
0
10
8.4275474
20
66.2253648
11
25.8142122
21
61.566622
0
LINE
8
0
10
25.8142122
20
61.566622
11
21.1554694
21
44.1799572
0
LINE
8
0
10
21.1554694
20
44.1799572
11
3.7688046
21
48.8387
0
LINE
8
0
10
3.7688046
20
48.8387
11
8.4275474
21
66.2253648
0
LINE
8
0
10
12.036926
20
6.092201
11
29.4235908
21
1.4334582
0
LINE
8
0
10
29.4235908
20
1.4334582
11
24.764848
21
-15.9532066
0
LINE
8
0
10
24.764848
20
-15.9532066
11
7.3781832
21
-11.2944638
0
LINE
8
0
10
7.3781832
20
-11.2944638
11
12.036926
21
6.092201
0
LINE
8
0
10
16.9674288
20
24.493088
11
34.3540936
21
19.8343452
0
LINE
8
0
10
34.3540936
20
19.8343452
11
29.6953508
21
2.4476804
0
LINE
8
0
10
29.6953508
20
2.4476804
11
12.308686
21
7.1064232
0
LINE
8
0
10
12.308686
20
7.1064232
11
16.9674288
21
24.493088
0
LINE
8
0
10
21.8979316
20
42.893975
11
39.2845964
21
38.2352322
0
LINE
8
0
10
39.2845964
20
38.2352322
11
34.6258536
21
20.8485674
0
LINE
8
0
10
34.6258536
20
20.8485674
11
17.2391888
21
25.5073102
0
LINE
8
0
10
17.2391888
20
25.5073102
11
21.8979316
21
42.893975
0
LINE
8
0
10
26.8284344
20
61.294862
11
44.2150992
21
56.6361192
0
LINE
8
0
10
44.2150992
20
56.6361192
11
39.5563564
21
39.2494544
0
LINE
8
0
10
39.5563564
20
39.2494544
11
22.1696916
21
43.9081972
0
LINE
8
0
10
22.1696916
20
43.9081972
11
26.8284344
21
61.294862
0
LINE
8
0
10
31.7319082
20
5.9913273
11
49.118573
21
1.3325845
0
LINE
8
0
10
49.118573
20
1.3325845
11
44.4598302
21
-16.0540803
0
LINE
8
0
10
44.4598302
20
-16.0540803
11
27.0731654
21
-11.3953375
0
LINE
8
0
10
27.0731654
20
-11.3953375
11
31.7319082
21
5.9913273
0
LINE
8
0
10
36.662411
20
24.3922143
11
54.0490758
21
19.7334715
0
LINE
8
0
10
54.0490758
20
19.7334715
11
49.390333
21
2.3468067
0
LINE
8
0
10
49.390333
20
2.3468067
11
32.0036682
21
7.0055495
0
LINE
8
0
10
32.0036682
20
7.0055495
11
36.662411
21
24.3922143
0
LINE
8
0
10
41.5929138
20
42.7931013
11
58.9795786
21
38.1343585
0
LINE
8
0
10
58.9795786
20
38.1343585
11
54.3208358
21
20.7476937
0
LINE
8
0
10
54.3208358
20
20.7476937
11
36.934171
21
25.4064365
0
LINE
8
0
10
36.934171
20
25.4064365
11
41.5929138
21
42.7931013
0
LINE
8
0
10
46.5234166
20
61.1939883
11
63.9100814
21
56.5352455
0
LINE
8
0
10
63.9100814
20
56.5352455
11
59.2513386
21
39.1485807
0
LINE
8
0
10
59.2513386
20
39.1485807
11
41.8646738
21
43.8073235
0
LINE
8
0
10
41.8646738
20
43.8073235
11
46.5234166
21
61.1939883
0
LINE
8
0
10
50.7798428
20
3.4756391
11
68.1665076
21
-1.1831037
0
LINE
8
0
10
68.1665076
20
-1.1831037
11
63.5077648
21
-18.5697685
0
LINE
8
0
10
63.5077648
20
-18.5697685
11
46.1211
21
-13.9110257
0
LINE
8
0
10
46.1211
20
-13.9110257
11
50.7798428
21
3.4756391
0
LINE
8
0
10
55.7103456
20
21.8765261
11
73.0970104
21
17.2177833
0
LINE
8
0
10
73.0970104
20
17.2177833
11
68.4382676
21
-0.1688815
0
LINE
8
0
10
68.4382676
20
-0.1688815
11
51.0516028
21
4.4898613
0
LINE
8
0
10
51.0516028
20
4.4898613
11
55.7103456
21
21.8765261
0
LINE
8
0
10
60.6408484
20
40.2774131
11
78.0275132
21
35.6186703
0
LINE
8
0
10
78.0275132
20
35.6186703
11
73.3687704
21
18.2320055
0
LINE
8
0
10
73.3687704
20
18.2320055
11
55.9821056
21
22.8907483
0
LINE
8
0
10
55.9821056
20
22.8907483
11
60.6408484
21
40.2774131
0
LINE
8
0
10
65.5713512
20
58.6783
11
82.958016
21
54.0195572
0
LINE
8
0
10
82.958016
20
54.0195572
11
78.2992732
21
36.6328924
0
LINE
8
0
10
78.2992732
20
36.6328924
11
60.9126084
21
41.2916352
0
LINE
8
0
10
60.9126084
20
41.2916352
11
65.5713512
21
58.6783
0
LINE
8
0
10
68.5336822
20
-3.8696783
11
85.920347
21
-8.5284211
0
LINE
8
0
10
85.920347
20
-8.5284211
11
81.2616042
21
-25.9150859
0
LINE
8
0
10
81.2616042
20
-25.9150859
11
63.8749394
21
-21.2563431
0
LINE
8
0
10
63.8749394
20
-21.2563431
11
68.5336822
21
-3.8696783
0
LINE
8
0
10
73.464185
20
14.5312087
11
90.8508498
21
9.8724659
0
LINE
8
0
10
90.8508498
20
9.8724659
11
86.192107
21
-7.5141989
0
LINE
8
0
10
86.192107
20
-7.5141989
11
68.8054422
21
-2.8554561
0
LINE
8
0
10
68.8054422
20
-2.8554561
11
73.464185
21
14.5312087
0
LINE
8
0
10
78.3946878
20
32.9320957
11
95.7813526
21
28.2733529
0
LINE
8
0
10
95.7813526
20
28.2733529
11
91.1226098
21
10.8866881
0
LINE
8
0
10
91.1226098
20
10.8866881
11
73.735945
21
15.5454309
0
LINE
8
0
10
73.735945
20
15.5454309
11
78.3946878
21
32.9320957
0
LINE
8
0
10
83.3251906
20
51.3329827
11
100.7118554
21
46.6742399
0
LINE
8
0
10
100.7118554
20
46.6742399
11
96.0531126
21
29.2875751
0
LINE
8
0
10
96.0531126
20
29.2875751
11
78.6664478
21
33.9463179
0
LINE
8
0
10
78.6664478
20
33.9463179
11
83.3251906
21
51.3329827
0
LINE
8
0
10
86.2875216
20
-11.2149957
11
103.6741864
21
-15.8737385
0
LINE
8
0
10
103.6741864
20
-15.8737385
11
99.0154436
21
-33.2604033
0
LINE
8
0
10
99.0154436
20
-33.2604033
11
81.6287788
21
-28.6016605
0
LINE
8
0
10
81.6287788
20
-28.6016605
11
86.2875216
21
-11.2149957
0
LINE
8
0
10
91.2180244
20
7.1858913
11
108.6046892
21
2.5271485
0
LINE
8
0
10
108.6046892
20
2.5271485
11
103.9459464
21
-14.8595163
0
LINE
8
0
10
103.9459464
20
-14.8595163
11
86.5592816
21
-10.2007735
0
LINE
8
0
10
86.5592816
20
-10.2007735
11
91.2180244
21
7.1858913
0
LINE
8
0
10
96.1485272
20
25.5867783
11
113.535192
21
20.9280355
0
LINE
8
0
10
113.535192
20
20.9280355
11
108.8764492
21
3.5413707
0
LINE
8
0
10
108.8764492
20
3.5413707
11
91.4897844
21
8.2001135
0
LINE
8
0
10
91.4897844
20
8.2001135
11
96.1485272
21
25.5867783
0
LINE
8
0
10
101.07903
20
43.9876653
11
118.4656948
21
39.3289225
0
LINE
8
0
10
118.4656948
20
39.3289225
11
113.806952
21
21.9422577
0
LINE
8
0
10
113.806952
20
21.9422577
11
96.4202872
21
26.6010005
0
LINE
8
0
10
96.4202872
20
26.6010005
11
101.07903
21
43.9876653
0
LINE
8
0
10
25.2614321
20
-18.1568183
11
42.6480969
21
-22.8155611
0
LINE
8
0
10
42.6480969
20
-22.8155611
11
37.9893541
21
-40.2022259
0
LINE
8
0
10
37.9893541
20
-40.2022259
11
20.6026893
21
-35.5434831
0
LINE
8
0
10
20.6026893
20
-35.5434831
11
25.2614321
21
-18.1568183
0
LINE
8
0
10
44.3093667
20
-20.6725066
11
61.6960315
21
-25.3312494
0
LINE
8
0
10
61.6960315
20
-25.3312494
11
57.0372887
21
-42.7179142
0
LINE
8
0
10
57.0372887
20
-42.7179142
11
39.6506239
21
-38.0591714
0
LINE
8
0
10
39.6506239
20
-38.0591714
11
44.3093667
21
-20.6725066
0
LINE
8
0
10
62.0632061
20
-28.017824
11
79.4498709
21
-32.6765668
0
LINE
8
0
10
79.4498709
20
-32.6765668
11
74.7911281
21
-50.0632316
0
LINE
8
0
10
74.7911281
20
-50.0632316
11
57.4044633
21
-45.4044888
0
LINE
8
0
10
57.4044633
20
-45.4044888
11
62.0632061
21
-28.017824
0
LINE
8
0
10
85.8639525
20
-37.6409036
11
101.4524097
21
-46.6409036
0
LINE
8
0
10
101.4524097
20
-46.6409036
11
92.4524097
21
-62.2293608
0
LINE
8
0
10
92.4524097
20
-62.2293608
11
76.8639525
21
-53.2293608
0
LINE
8
0
10
76.8639525
20
-53.2293608
11
85.8639525
21
-37.6409036
0
LINE
8
0
10
92.515943
20
-65.720139
11
112.7215193
21
-45.5145627
0
LINE
8
0
10
112.7215193
20
-45.5145627
11
125.4494414
21
-58.2424848
0
LINE
8
0
10
125.4494414
20
-58.2424848
11
105.2438651
21
-78.4480611
0
LINE
8
0
10
105.2438651
20
-78.4480611
11
92.515943
21
-65.720139
0
LINE
8
0
10
275.8632782
20
6.363961
11
293.249943
21
11.0227038
0
LINE
8
0
10
293.249943
20
11.0227038
11
297.9086858
21
-6.363961
0
LINE
8
0
10
297.9086858
20
-6.363961
11
280.522021
21
-11.0227038
0
LINE
8
0
10
280.522021
20
-11.0227038
11
275.8632782
21
6.363961
0
LINE
8
0
10
270.9327754
20
24.764848
11
288.3194402
21
29.4235908
0
LINE
8
0
10
288.3194402
20
29.4235908
11
292.978183
21
12.036926
0
LINE
8
0
10
292.978183
20
12.036926
11
275.5915182
21
7.3781832
0
LINE
8
0
10
275.5915182
20
7.3781832
11
270.9327754
21
24.764848
0
LINE
8
0
10
266.0022726
20
43.165735
11
283.3889374
21
47.8244778
0
LINE
8
0
10
283.3889374
20
47.8244778
11
288.0476802
21
30.437813
0
LINE
8
0
10
288.0476802
20
30.437813
11
270.6610154
21
25.7790702
0
LINE
8
0
10
270.6610154
20
25.7790702
11
266.0022726
21
43.165735
0
LINE
8
0
10
261.0717698
20
61.566622
11
278.4584346
21
66.2253648
0
LINE
8
0
10
278.4584346
20
66.2253648
11
283.1171774
21
48.8387
0
LINE
8
0
10
283.1171774
20
48.8387
11
265.7305126
21
44.1799572
0
LINE
8
0
10
265.7305126
20
44.1799572
11
261.0717698
21
61.566622
0
LINE
8
0
10
257.4623912
20
1.4334582
11
274.849056
21
6.092201
0
LINE
8
0
10
274.849056
20
6.092201
11
279.5077988
21
-11.2944638
0
LINE
8
0
10
279.5077988
20
-11.2944638
11
262.121134
21
-15.9532066
0
LINE
8
0
10
262.121134
20
-15.9532066
11
257.4623912
21
1.4334582
0
LINE
8
0
10
252.5318884
20
19.8343452
11
269.9185532
21
24.493088
0
LINE
8
0
10
269.9185532
20
24.493088
11
274.577296
21
7.1064232
0
LINE
8
0
10
274.577296
20
7.1064232
11
257.1906312
21
2.4476804
0
LINE
8
0
10
257.1906312
20
2.4476804
11
252.5318884
21
19.8343452
0
LINE
8
0
10
247.6013856
20
38.2352322
11
264.9880504
21
42.893975
0
LINE
8
0
10
264.9880504
20
42.893975
11
269.6467932
21
25.5073102
0
LINE
8
0
10
269.6467932
20
25.5073102
11
252.2601284
21
20.8485674
0
LINE
8
0
10
252.2601284
20
20.8485674
11
247.6013856
21
38.2352322
0
LINE
8
0
10
242.6708828
20
56.6361192
11
260.0575476
21
61.294862
0
LINE
8
0
10
260.0575476
20
61.294862
11
264.7162904
21
43.9081972
0
LINE
8
0
10
264.7162904
20
43.9081972
11
247.3296256
21
39.2494544
0
LINE
8
0
10
247.3296256
20
39.2494544
11
242.6708828
21
56.6361192
0
LINE
8
0
10
237.767409
20
1.3325845
11
255.1540738
21
5.9913273
0
LINE
8
0
10
255.1540738
20
5.9913273
11
259.8128166
21
-11.3953375
0
LINE
8
0
10
259.8128166
20
-11.3953375
11
242.4261518
21
-16.0540803
0
LINE
8
0
10
242.4261518
20
-16.0540803
11
237.767409
21
1.3325845
0
LINE
8
0
10
232.8369062
20
19.7334715
11
250.223571
21
24.3922143
0
LINE
8
0
10
250.223571
20
24.3922143
11
254.8823138
21
7.0055495
0
LINE
8
0
10
254.8823138
20
7.0055495
11
237.495649
21
2.3468067
0
LINE
8
0
10
237.495649
20
2.3468067
11
232.8369062
21
19.7334715
0
LINE
8
0
10
227.9064034
20
38.1343585
11
245.2930682
21
42.7931013
0
LINE
8
0
10
245.2930682
20
42.7931013
11
249.951811
21
25.4064365
0
LINE
8
0
10
249.951811
20
25.4064365
11
232.5651462
21
20.7476937
0
LINE
8
0
10
232.5651462
20
20.7476937
11
227.9064034
21
38.1343585
0
LINE
8
0
10
222.9759006
20
56.5352455
11
240.3625654
21
61.1939883
0
LINE
8
0
10
240.3625654
20
61.1939883
11
245.0213082
21
43.8073235
0
LINE
8
0
10
245.0213082
20
43.8073235
11
227.6346434
21
39.1485807
0
LINE
8
0
10
227.6346434
20
39.1485807
11
222.9759006
21
56.5352455
0
LINE
8
0
10
218.7194744
20
-1.1831037
11
236.1061392
21
3.4756391
0
LINE
8
0
10
236.1061392
20
3.4756391
11
240.764882
21
-13.9110257
0
LINE
8
0
10
240.764882
20
-13.9110257
11
223.3782172
21
-18.5697685
0
LINE
8
0
10
223.3782172
20
-18.5697685
11
218.7194744
21
-1.1831037
0
LINE
8
0
10
213.7889716
20
17.2177833
11
231.1756364
21
21.8765261
0
LINE
8
0
10
231.1756364
20
21.8765261
11
235.8343792
21
4.4898613
0
LINE
8
0
10
235.8343792
20
4.4898613
11
218.4477144
21
-0.1688815
0
LINE
8
0
10
218.4477144
20
-0.1688815
11
213.7889716
21
17.2177833
0
LINE
8
0
10
208.8584688
20
35.6186703
11
226.2451336
21
40.2774131
0
LINE
8
0
10
226.2451336
20
40.2774131
11
230.9038764
21
22.8907483
0
LINE
8
0
10
230.9038764
20
22.8907483
11
213.5172116
21
18.2320055
0
LINE
8
0
10
213.5172116
20
18.2320055
11
208.8584688
21
35.6186703
0
LINE
8
0
10
203.927966
20
54.0195572
11
221.3146308
21
58.6783
0
LINE
8
0
10
221.3146308
20
58.6783
11
225.9733736
21
41.2916352
0
LINE
8
0
10
225.9733736
20
41.2916352
11
208.5867088
21
36.6328924
0
LINE
8
0
10
208.5867088
20
36.6328924
11
203.927966
21
54.0195572
0
LINE
8
0
10
200.965635
20
-8.5284211
11
218.3522998
21
-3.8696783
0
LINE
8
0
10
218.3522998
20
-3.8696783
11
223.0110426
21
-21.2563431
0
LINE
8
0
10
223.0110426
20
-21.2563431
11
205.6243778
21
-25.9150859
0
LINE
8
0
10
205.6243778
20
-25.9150859
11
200.965635
21
-8.5284211
0
LINE
8
0
10
196.0351322
20
9.8724659
11
213.421797
21
14.5312087
0
LINE
8
0
10
213.421797
20
14.5312087
11
218.0805398
21
-2.8554561
0
LINE
8
0
10
218.0805398
20
-2.8554561
11
200.693875
21
-7.5141989
0
LINE
8
0
10
200.693875
20
-7.5141989
11
196.0351322
21
9.8724659
0
LINE
8
0
10
191.1046294
20
28.2733529
11
208.4912942
21
32.9320957
0
LINE
8
0
10
208.4912942
20
32.9320957
11
213.150037
21
15.5454309
0
LINE
8
0
10
213.150037
20
15.5454309
11
195.7633722
21
10.8866881
0
LINE
8
0
10
195.7633722
20
10.8866881
11
191.1046294
21
28.2733529
0
LINE
8
0
10
186.1741266
20
46.6742399
11
203.5607914
21
51.3329827
0
LINE
8
0
10
203.5607914
20
51.3329827
11
208.2195342
21
33.9463179
0
LINE
8
0
10
208.2195342
20
33.9463179
11
190.8328694
21
29.2875751
0
LINE
8
0
10
190.8328694
20
29.2875751
11
186.1741266
21
46.6742399
0
LINE
8
0
10
183.2117956
20
-15.8737385
11
200.5984604
21
-11.2149957
0
LINE
8
0
10
200.5984604
20
-11.2149957
11
205.2572032
21
-28.6016605
0
LINE
8
0
10
205.2572032
20
-28.6016605
11
187.8705384
21
-33.2604033
0
LINE
8
0
10
187.8705384
20
-33.2604033
11
183.2117956
21
-15.8737385
0
LINE
8
0
10
178.2812928
20
2.5271485
11
195.6679576
21
7.1858913
0
LINE
8
0
10
195.6679576
20
7.1858913
11
200.3267004
21
-10.2007735
0
LINE
8
0
10
200.3267004
20
-10.2007735
11
182.9400356
21
-14.8595163
0
LINE
8
0
10
182.9400356
20
-14.8595163
11
178.2812928
21
2.5271485
0
LINE
8
0
10
173.35079
20
20.9280355
11
190.7374548
21
25.5867783
0
LINE
8
0
10
190.7374548
20
25.5867783
11
195.3961976
21
8.2001135
0
LINE
8
0
10
195.3961976
20
8.2001135
11
178.0095328
21
3.5413707
0
LINE
8
0
10
178.0095328
20
3.5413707
11
173.35079
21
20.9280355
0
LINE
8
0
10
168.4202872
20
39.3289225
11
185.806952
21
43.9876653
0
LINE
8
0
10
185.806952
20
43.9876653
11
190.4656948
21
26.6010005
0
LINE
8
0
10
190.4656948
20
26.6010005
11
173.07903
21
21.9422577
0
LINE
8
0
10
173.07903
20
21.9422577
11
168.4202872
21
39.3289225
0
LINE
8
0
10
244.2378851
20
-22.8155611
11
261.6245499
21
-18.1568183
0
LINE
8
0
10
261.6245499
20
-18.1568183
11
266.2832927
21
-35.5434831
0
LINE
8
0
10
266.2832927
20
-35.5434831
11
248.8966279
21
-40.2022259
0
LINE
8
0
10
248.8966279
20
-40.2022259
11
244.2378851
21
-22.8155611
0
LINE
8
0
10
225.1899505
20
-25.3312494
11
242.5766153
21
-20.6725066
0
LINE
8
0
10
242.5766153
20
-20.6725066
11
247.2353581
21
-38.0591714
0
LINE
8
0
10
247.2353581
20
-38.0591714
11
229.8486933
21
-42.7179142
0
LINE
8
0
10
229.8486933
20
-42.7179142
11
225.1899505
21
-25.3312494
0
LINE
8
0
10
207.4361111
20
-32.6765668
11
224.8227759
21
-28.017824
0
LINE
8
0
10
224.8227759
20
-28.017824
11
229.4815187
21
-45.4044888
0
LINE
8
0
10
229.4815187
20
-45.4044888
11
212.0948539
21
-50.0632316
0
LINE
8
0
10
212.0948539
20
-50.0632316
11
207.4361111
21
-32.6765668
0
LINE
8
0
10
185.4335723
20
-46.6409036
11
201.0220295
21
-37.6409036
0
LINE
8
0
10
201.0220295
20
-37.6409036
11
210.0220295
21
-53.2293608
0
LINE
8
0
10
210.0220295
20
-53.2293608
11
194.4335723
21
-62.2293608
0
LINE
8
0
10
194.4335723
20
-62.2293608
11
185.4335723
21
-46.6409036
0
LINE
8
0
10
174.1644627
20
-45.5145627
11
194.370039
21
-65.720139
0
LINE
8
0
10
194.370039
20
-65.720139
11
181.6421169
21
-78.4480611
0
LINE
8
0
10
181.6421169
20
-78.4480611
11
161.4365406
21
-58.2424848
0
LINE
8
0
10
161.4365406
20
-58.2424848
11
174.1644627
21
-45.5145627
0
ENDSEC
0
EOF